<svg width="87" height="25" viewBox="0 0 87 25" fill="none" xmlns="http://www.w3.org/2000/svg">
<path d="M26.2173 24H29.1612C30.8267 24 31.6435 23.1513 31.6435 22.0185C31.6435 20.9176 30.8622 20.2713 30.0881 20.2322V20.1612C30.7983 19.9943 31.3594 19.4972 31.3594 18.6129C31.3594 17.5298 30.5781 16.7273 29.0014 16.7273H26.2173V24ZM27.5348 22.8991V20.7685H28.9872C29.8004 20.7685 30.3047 21.2656 30.3047 21.9155C30.3047 22.4943 29.907 22.8991 28.9517 22.8991H27.5348ZM27.5348 19.8203V17.8139H28.8665C29.6406 17.8139 30.0419 18.2223 30.0419 18.7834C30.0419 19.4226 29.5234 19.8203 28.8381 19.8203H27.5348ZM40.4235 24L41.0237 22.2067H43.7581L44.3618 24H45.768L43.2041 16.7273H41.5777L39.0173 24H40.4235ZM41.3788 21.1484L42.3625 18.2188H42.4193L43.4029 21.1484H41.3788ZM53.291 24H58.6745V22.8956H54.9281L58.6532 17.5476V16.7273H53.2697V17.8317H57.0197L53.291 23.1797V24ZM67.5833 24L68.1835 22.2067H70.9178L71.5215 24H72.9278L70.3638 16.7273H68.7374L66.1771 24H67.5833ZM68.5386 21.1484L69.5222 18.2188H69.579L70.5627 21.1484H68.5386ZM80.5857 24H81.9032V21.3366H83.2455L84.673 24H86.1432L84.5701 21.1165C85.4259 20.772 85.8769 20.0405 85.8769 19.0533C85.8769 17.6648 84.982 16.7273 83.313 16.7273H80.5857V24ZM81.9032 20.2429V17.8281H83.1105C84.0942 17.8281 84.5346 18.2791 84.5346 19.0533C84.5346 19.8274 84.0942 20.2429 83.1176 20.2429H81.9032Z" fill="#334155"/>
<path d="M26.3807 14H29.1932V10.8466L30.3182 9.42614L33.2159 14H36.5795L32.3807 7.55682L36.5057 2.36364H33.1932L29.3466 7.28409H29.1932V2.36364H26.3807V14ZM40.1321 14L40.8991 11.5568H44.9162L45.6832 14H48.706L44.7798 2.36364H41.0355L37.1094 14H40.1321ZM41.5696 9.42045L42.8594 5.29545H42.9503L44.2457 9.42045H41.5696ZM59.9744 6.57955C59.6903 3.79545 57.6165 2.20455 54.804 2.20455C51.7017 2.20455 49.2869 4.33523 49.2869 8.18182C49.2869 12.0114 51.6449 14.1591 54.804 14.1591C57.9972 14.1591 59.7642 11.9886 59.9744 9.92614L57.1335 9.90909C56.9347 11.0284 56.0938 11.6932 54.8608 11.6932C53.2017 11.6932 52.1562 10.4943 52.1562 8.18182C52.1562 5.96023 53.179 4.67045 54.8778 4.67045C56.1562 4.67045 56.9915 5.41477 57.1335 6.57955H59.9744ZM61.5838 14H64.3963V9.32386H68.9815V14H71.7884V2.36364H68.9815V7.03409H64.3963V2.36364H61.5838V14ZM76.0696 14L76.8366 11.5568H80.8537L81.6207 14H84.6435L80.7173 2.36364H76.973L73.0469 14H76.0696ZM77.5071 9.42045L78.7969 5.29545H78.8878L80.1832 9.42045H77.5071Z" fill="#334155"/>
<g clip-path="url(#clip0)">
<path d="M15.9108 8.23217V6.78574C15.9108 3.59545 13.3153 1 10.125 1C6.93475 1 4.33931 3.59545 4.33931 6.78574V8.23217H0V20.5269C0 22.524 1.61897 24.143 3.61609 24.143H16.634C18.6311 24.143 20.2501 22.524 20.2501 20.5269V8.23217H15.9108ZM7.23218 6.78574C7.23218 5.19059 8.5299 3.89287 10.125 3.89287C11.7202 3.89287 13.0179 5.19059 13.0179 6.78574V8.23217H7.23218V6.78574ZM14.4644 12.2099C13.8652 12.2099 13.3795 11.7242 13.3795 11.125C13.3795 10.5259 13.8652 10.0402 14.4644 10.0402C15.0635 10.0402 15.5492 10.5259 15.5492 11.125C15.5492 11.7242 15.0635 12.2099 14.4644 12.2099ZM5.78574 12.2099C5.1866 12.2099 4.70091 11.7242 4.70091 11.125C4.70091 10.5259 5.1866 10.0402 5.78574 10.0402C6.38488 10.0402 6.87057 10.5259 6.87057 11.125C6.87057 11.7242 6.38488 12.2099 5.78574 12.2099Z" fill="#10B981"/>
</g>
<defs>
<clipPath id="clip0">
<rect width="20.2501" height="23.143" fill="white" transform="translate(0 1)"/>
</clipPath>
</defs>
</svg>
