<svg width="87" height="25" viewBox="0 0 87 25" fill="none" xmlns="http://www.w3.org/2000/svg">
<path d="M26.7173 24H29.6612C31.3267 24 32.1435 23.1513 32.1435 22.0185C32.1435 20.9176 31.3622 20.2713 30.5881 20.2322V20.1612C31.2983 19.9943 31.8594 19.4972 31.8594 18.6129C31.8594 17.5298 31.0781 16.7273 29.5014 16.7273H26.7173V24ZM28.0348 22.8991V20.7685H29.4872C30.3004 20.7685 30.8047 21.2656 30.8047 21.9155C30.8047 22.4943 30.407 22.8991 29.4517 22.8991H28.0348ZM28.0348 19.8203V17.8139H29.3665C30.1406 17.8139 30.5419 18.2223 30.5419 18.7834C30.5419 19.4226 30.0234 19.8203 29.3381 19.8203H28.0348ZM40.9235 24L41.5237 22.2067H44.2581L44.8618 24H46.268L43.7041 16.7273H42.0777L39.5173 24H40.9235ZM41.8788 21.1484L42.8625 18.2188H42.9193L43.9029 21.1484H41.8788ZM53.791 24H59.1745V22.8956H55.4281L59.1532 17.5476V16.7273H53.7697V17.8317H57.5197L53.791 23.1797V24ZM68.0833 24L68.6835 22.2067H71.4178L72.0215 24H73.4278L70.8638 16.7273H69.2374L66.6771 24H68.0833ZM69.0386 21.1484L70.0222 18.2188H70.079L71.0627 21.1484H69.0386ZM81.0857 24H82.4032V21.3366H83.7455L85.173 24H86.6432L85.0701 21.1165C85.9259 20.772 86.3769 20.0405 86.3769 19.0533C86.3769 17.6648 85.482 16.7273 83.813 16.7273H81.0857V24ZM82.4032 20.2429V17.8281H83.6105C84.5942 17.8281 85.0346 18.2791 85.0346 19.0533C85.0346 19.8274 84.5942 20.2429 83.6176 20.2429H82.4032Z" fill="white"/>
<path d="M26.8807 14H29.6932V10.8466L30.8182 9.42614L33.7159 14H37.0795L32.8807 7.55682L37.0057 2.36364H33.6932L29.8466 7.28409H29.6932V2.36364H26.8807V14ZM40.6321 14L41.3991 11.5568H45.4162L46.1832 14H49.206L45.2798 2.36364H41.5355L37.6094 14H40.6321ZM42.0696 9.42045L43.3594 5.29545H43.4503L44.7457 9.42045H42.0696ZM60.4744 6.57955C60.1903 3.79545 58.1165 2.20455 55.304 2.20455C52.2017 2.20455 49.7869 4.33523 49.7869 8.18182C49.7869 12.0114 52.1449 14.1591 55.304 14.1591C58.4972 14.1591 60.2642 11.9886 60.4744 9.92614L57.6335 9.90909C57.4347 11.0284 56.5938 11.6932 55.3608 11.6932C53.7017 11.6932 52.6562 10.4943 52.6562 8.18182C52.6562 5.96023 53.679 4.67045 55.3778 4.67045C56.6562 4.67045 57.4915 5.41477 57.6335 6.57955H60.4744ZM62.0838 14H64.8963V9.32386H69.4815V14H72.2884V2.36364H69.4815V7.03409H64.8963V2.36364H62.0838V14ZM76.5696 14L77.3366 11.5568H81.3537L82.1207 14H85.1435L81.2173 2.36364H77.473L73.5469 14H76.5696ZM78.0071 9.42045L79.2969 5.29545H79.3878L80.6832 9.42045H78.0071Z" fill="white"/>
<g clip-path="url(#clip0)">
<path d="M16.4108 8.23217V6.78574C16.4108 3.59545 13.8153 1 10.625 1C7.43475 1 4.83931 3.59545 4.83931 6.78574V8.23217H0.5V20.5269C0.5 22.524 2.11897 24.143 4.11609 24.143H17.134C19.1311 24.143 20.7501 22.524 20.7501 20.5269V8.23217H16.4108ZM7.73218 6.78574C7.73218 5.19059 9.0299 3.89287 10.625 3.89287C12.2202 3.89287 13.5179 5.19059 13.5179 6.78574V8.23217H7.73218V6.78574ZM14.9644 12.2099C14.3652 12.2099 13.8795 11.7242 13.8795 11.125C13.8795 10.5259 14.3652 10.0402 14.9644 10.0402C15.5635 10.0402 16.0492 10.5259 16.0492 11.125C16.0492 11.7242 15.5635 12.2099 14.9644 12.2099ZM6.28574 12.2099C5.6866 12.2099 5.20091 11.7242 5.20091 11.125C5.20091 10.5259 5.6866 10.0402 6.28574 10.0402C6.88488 10.0402 7.37057 10.5259 7.37057 11.125C7.37057 11.7242 6.88488 12.2099 6.28574 12.2099Z" fill="white"/>
</g>
<defs>
<clipPath id="clip0">
<rect width="20.2501" height="23.143" fill="white" transform="translate(0.5 1)"/>
</clipPath>
</defs>
</svg>
