<svg xmlns="http://www.w3.org/2000/svg" width="24" height="24" viewBox="0 0 24 24"><g><path fill="none" d="M0 0H24V24H0z"></path><g><path fill="#4285f4" d="M28.29 16.874a9.238 9.238 0 0 0-.228-2.2H17.938v4h5.943a5.271
 5.271 0 0 1-2.2 3.5l-.02.134 3.2 2.48.222.022a10.544 10.544 0 0 0 3.211-7.932" transform="translate(1.192 1.217) translate(-7.155 -5.851)"></path><path fill="#34a853" d="M11.546 30.136a10.279 10.279 0 0 0 7.141-2.612l-3.4-2.636a6.385
 6.385 0 0 1-3.738 1.078 6.491 6.491 0 0 1-6.135-4.481l-.126.011-3.332
 2.577-.043.121a10.775 10.775 0 0 0 9.633 5.943" transform="translate(1.192 1.217) translate(-.763 -8.571)"></path><path fill="#fbbc05" d="M4.649 16.824a6.633 6.633 0 0 1-.359-2.133 6.971 6.971 0 0
 1 .347-2.133l-.006-.143L1.261 9.8l-.11.052a10.759 10.759 0 0 0 0 9.681l3.5-2.708" transform="translate(1.192 1.217) translate(0 -3.909)"></path><path fill="#eb4335" d="M11.546 4.169a5.977 5.977 0 0 1 4.169 1.606L18.759 2.8A10.361
 10.361 0 0 0 11.546 0a10.775 10.775 0 0 0-9.633 5.943L5.4 8.651a6.518 6.518 0 0 1 6.146-4.481" transform="translate(1.192 1.217) translate(-.763)"></path></g></g></svg>